<svg width="1554" height="746" xmlns="http://www.w3.org/2000/svg"><path d="M1446 290 1446 291 1446 292 1446 293 1446 294 1446 295 1446 296 1447 296 1448 297 1448 298 1448 299 1448 300 1448 301 1448 302 1447 303 1446 302 1446 301 1446 300 1445 300 1444 300 1443 300 1442 300 1441 300 1440 300 1439 300 1438 300 1437 299 1438 298 1439 298 1438 298 1437 297 1437 296 1437 295 1437 294 1437 293 1436 292 1436 291 1436 292 1437 293 1437 294 1437 295 1437 296 1437 297 1437 298 1437 299 1437 300 1437 301 1437 302 1436 303 1435 303 1434 303 1433 303 1432 304 1431 304 1430 304 1429 304 1428 304 1427 304 1426 304 1425 304 1424 304 1423 304 1422 304 1421 304 1420 304 1419 304 1418 304 1417 303 1417 302 1417 301 1417 300 1417 299 1417 298 1417 297 1417 296 1417 295 1417 294 1417 293 1417 292 1417 291 1417 292 1417 293 1417 294 1417 295 1417 296 1417 297 1417 298 1417 299 1417 300 1417 301 1417 302 1417 303 1416 304 1415 303 1415 302 1415 301 1415 300 1415 299 1415 300 1415 301 1415 302 1415 303 1414 304 1413 305 1412 305 1411 305 1410 305 1409 305 1408 305 1407 305 1406 305 1405 305 1404 305 1403 305 1402 304 1401 304 1400 304 1399 304 1398 303 1398 302 1398 301 1398 300 1398 299 1398 298 1398 297 1398 296 1398 295 1398 294 1398 293 1398 292 1398 293 1398 294 1398 295 1398 296 1398 297 1398 298 1398 299 1398 300 1398 301 1398 302 1398 303 1399 304 1398 305 1397 305 1396 305 1395 305 1394 305 1393 304 1393 303 1393 302 1393 301 1393 300 1394 299 1395 300 1395 301 1395 302 1395 303 1395 302 1395 301 1395 300 1396 299 1396 298 1396 297 1396 296 1396 295 1396 294 1395 293 1396 294 1396 295 1396 296 1396 297 1396 298 1395 299 1394 299 1393 298 1392 297 1392 296 1392 295 1392 294 1392 293 1392 294 1392 295 1392 296 1392 297 1393 298 1393 299 1393 300 1393 301 1393 302 1393 303 1393 304 1392 305 1391 305 1390 305 1389 305 1388 305 1387 305 1386 305 1385 305 1384 305 1383 305 1382 305 1381 305 1380 305 1379 305 1378 305 1377 305 1376 306 1375 306 1374 306 1373 306 1372 306 1371 306 1370 306 1369 306 1368 306 1367 306 1366 306 1365 306 1364 306 1363 306 1362 306 1361 306 1360 306 1359 305 1358 305 1357 305 1356 305 1355 305 1354 305 1353 305 1352 304 1351 304 1350 304 1349 304 1348 304 1347 304 1346 304 1345 304 1344 304 1343 304 1342 304 1341 304 1340 304 1339 303 1340 302 1339 303 1338 304 1337 304 1336 304 1335 304 1336 304 1337 304 1338 304 1339 304 1340 304 1341 304 1342 304 1343 304 1344 304 1345 304 1346 304 1347 304 1348 304 1349 304 1350 304 1351 304 1352 304 1353 305 1352 306 1351 306 1350 306 1349 306 1348 306 1347 306 1346 306 1345 306 1344 306 1343 306 1342 306 1341 306 1340 306 1339 306 1338 306 1337 306 1336 306 1335 306 1336 306 1337 306 1338 306 1339 306 1340 306 1341 306 1342 306 1343 306 1344 306 1345 306 1346 306 1347 306 1348 306 1349 306 1350 306 1351 306 1352 306 1353 307 1354 307 1355 307 1356 307 1357 307 1358 307 1359 307 1360 306 1361 306 1362 306 1363 307 1362 308 1361 308 1362 308 1363 308 1364 309 1364 310 1364 311 1364 312 1364 313 1364 314 1364 315 1364 316 1363 317 1362 317 1361 317 1360 317 1359 317 1358 318 1357 318 1356 318 1355 318 1354 318 1353 318 1352 317 1353 316 1354 316 1355 316 1356 316 1357 316 1356 316 1355 316 1354 316 1353 316 1352 317 1351 317 1350 317 1349 317 1348 317 1347 317 1346 317 1345 317 1344 317 1343 317 1342 317 1341 317 1340 317 1339 317 1338 317 1337 317 1336 317 1335 317 1334 317 1335 318 1334 319 1333 319 1332 319 1331 319 1330 319 1329 319 1328 319 1327 319 1326 319 1325 319 1324 319 1325 319 1326 319 1327 319 1328 319 1329 319 1330 319 1331 319 1332 319 1333 319 1334 319 1335 320 1334 321 1333 321 1332 321 1331 321 1330 321 1329 321 1328 321 1327 321 1326 321 1325 321 1324 321 1323 321 1322 322 1321 322 1320 322 1319 322 1318 322 1317 322 1316 322 1315 322 1314 322 1313 322 1312 322 1311 322 1310 322 1309 322 1308 322 1307 322 1306 322 1305 322 1304 322 1303 321 1302 321 1301 321 1300 321 1299 321 1298 321 1297 321 1296 321 1295 321 1294 321 1293 320 1293 319 1292 318 1291 318 1290 318 1289 318 1288 319 1287 319 1286 318 1285 317 1285 316 1286 315 1287 315 1288 315 1289 315 1290 315 1291 315 1292 315 1292 314 1292 313 1293 312 1292 313 1292 314 1291 315 1290 315 1289 315 1288 315 1287 315 1286 314 1286 313 1286 312 1287 311 1288 311 1289 311 1290 311 1291 310 1292 310 1293 310 1294 310 1295 310 1296 309 1297 309 1298 309 1299 309 1300 309 1301 309 1302 309 1303 309 1304 309 1305 309 1306 309 1307 309 1308 309 1309 309 1310 309 1311 309 1312 309 1313 309 1314 309 1315 309 1316 308 1317 308 1318 308 1319 308 1320 308 1321 308 1322 308 1323 308 1324 308 1325 308 1326 308 1327 308 1328 308 1329 308 1330 308 1331 308 1332 308 1333 308 1334 308 1335 308 1334 308 1333 308 1332 308 1331 308 1330 308 1329 308 1328 308 1327 308 1326 308 1325 308 1324 308 1323 308 1322 308 1321 308 1320 307 1320 306 1320 305 1320 304 1320 303 1320 302 1320 301 1320 300 1319 299 1319 298 1319 297 1319 296 1319 297 1319 298 1319 299 1320 300 1320 301 1320 302 1320 303 1320 304 1319 305 1318 304 1318 303 1318 302 1318 301 1318 302 1318 303 1318 304 1318 305 1318 306 1319 305 1320 306 1320 307 1319 308 1318 308 1317 308 1316 308 1315 309 1314 309 1313 309 1312 309 1311 309 1310 309 1309 309 1308 309 1307 309 1306 309 1305 309 1304 309 1303 309 1302 309 1301 309 1300 309 1299 309 1298 308 1298 307 1298 306 1298 305 1298 304 1298 303 1298 302 1298 301 1298 300 1298 299 1298 298 1298 297 1298 296 1298 297 1298 298 1298 299 1298 300 1298 301 1298 302 1298 303 1298 304 1298 305 1298 306 1298 307 1298 308 1297 309 1296 309 1295 310 1294 310 1293 310 1292 310 1291 310 1290 311 1289 311 1288 311 1287 311 1286 312 1286 313 1286 314 1286 315 1285 316 1285 317 1285 318 1284 319 1284 320 1284 321 1284 322 1284 323 1285 324 1285 325 1285 326 1285 327 1285 328 1286 329 1287 330 1288 329 1289 330 1289 331 1288 332 1289 331 1290 332 1290 333 1291 334 1292 335 1292 336 1293 337 1293 338 1294 339 1294 340 1295 340 1296 340 1297 340 1298 340 1299 340 1300 340 1301 340 1302 340 1303 340 1304 340 1303 340 1302 340 1301 340 1300 340 1299 340 1298 340 1297 340 1296 340 1295 340 1294 339 1295 338 1296 338 1297 338 1298 338 1299 338 1300 338 1301 338 1302 338 1303 338 1304 338 1305 338 1306 339 1307 339 1308 339 1309 339 1310 339 1311 339 1312 339 1313 339 1314 339 1315 339 1316 339 1317 339 1318 339 1319 339 1320 339 1321 339 1322 339 1321 339 1320 339 1319 339 1318 339 1317 339 1316 339 1315 339 1314 339 1313 339 1312 339 1311 339 1310 339 1309 339 1308 339 1307 339 1306 339 1305 338 1304 338 1303 338 1302 338 1301 338 1300 338 1299 338 1298 337 1298 336 1298 335 1298 334 1298 333 1298 332 1298 331 1298 330 1298 329 1298 328 1297 328 1296 328 1295 327 1296 328 1296 329 1296 330 1296 331 1296 332 1296 333 1296 334 1296 335 1296 336 1296 337 1295 338 1294 339 1293 338 1293 337 1292 336 1292 335 1292 334 1291 333 1290 332 1290 331 1289 330 1289 329 1288 328 1287 327 1287 326 1287 325 1288 324 1289 323 1290 323 1291 323 1292 323 1293 323 1294 323 1295 324 1295 325 1295 324 1296 323 1297 323 1298 323 1299 323 1300 323 1301 323 1302 323 1301 323 1300 323 1299 323 1298 323 1297 323 1296 323 1295 323 1294 323 1293 323 1292 323 1291 323 1290 323 1289 323 1288 323 1287 323 1286 322 1287 321 1287 320 1288 319 1289 318 1290 318 1291 318 1292 318 1293 319 1293 320 1293 321 1294 321 1295 321 1296 321 1297 321 1298 321 1299 321 1300 321 1301 321 1302 321 1303 321 1304 322 1305 322 1306 322 1307 322 1308 322 1309 322 1310 322 1311 322 1312 322 1313 322 1314 322 1315 322 1316 322 1317 322 1318 322 1319 322 1320 322 1321 322 1322 322 1323 321 1324 321 1325 321 1326 321 1327 321 1328 321 1329 321 1330 321 1331 321 1332 321 1333 321 1334 321 1335 321 1336 322 1335 323 1335 324 1335 325 1335 326 1335 327 1335 328 1334 329 1334 330 1334 331 1334 332 1334 333 1334 334 1335 334 1336 334 1337 334 1338 334 1339 334 1338 334 1337 334 1336 334 1335 334 1334 333 1335 332 1336 332 1337 332 1338 332 1339 332 1340 332 1341 333 1342 333 1343 333 1344 333 1345 333 1346 333 1347 333 1348 333 1349 334 1350 334 1351 334 1352 334 1353 334 1354 334 1355 335 1356 335 1357 335 1358 335 1359 335 1360 336 1361 336 1362 336 1363 336 1364 336 1365 336 1366 336 1367 336 1368 336 1369 336 1370 336 1371 336 1372 336 1373 336 1372 336 1371 336 1370 336 1369 336 1368 336 1367 336 1366 336 1365 336 1364 336 1363 336 1362 336 1361 336 1360 336 1359 335 1360 334 1361 334 1362 334 1363 334 1364 334 1365 334 1366 334 1367 334 1368 334 1369 334 1370 334 1371 334 1372 334 1373 334 1374 334 1375 334 1376 334 1377 335 1378 335 1379 335 1380 335 1381 335 1382 335 1383 335 1384 335 1385 335 1386 335 1387 335 1388 335 1389 335 1390 335 1391 335 1390 335 1389 335 1388 335 1387 335 1386 335 1385 335 1384 335 1383 335 1382 335 1381 335 1380 335 1379 335 1378 335 1377 335 1376 334 1377 333 1378 333 1379 333 1380 333 1381 333 1382 333 1383 333 1384 333 1385 333 1386 333 1387 333 1388 333 1389 333 1390 333 1391 333 1392 333 1393 334 1394 334 1395 334 1396 334 1397 334 1398 334 1399 334 1400 334 1401 334 1402 334 1403 335 1403 336 1403 337 1403 338 1404 337 1405 337 1406 337 1407 337 1408 337 1409 337 1410 337 1411 337 1412 337 1413 337 1414 337 1415 336 1416 336 1417 336 1418 336 1419 336 1420 336 1421 336 1422 336 1423 336 1424 336 1425 336 1426 336 1427 336 1428 336 1429 336 1430 336 1431 336 1432 336 1433 335 1434 335 1435 336 1436 336 1437 337 1436 338 1435 338 1434 338 1433 338 1432 338 1431 338 1430 338 1429 338 1428 339 1427 339 1426 339 1425 339 1424 339 1423 339 1422 339 1421 339 1420 339 1419 339 1418 339 1417 339 1416 339 1415 339 1414 339 1413 339 1412 339 1411 339 1410 340 1409 340 1408 340 1407 340 1406 340 1405 340 1404 340 1403 340 1403 341 1403 342 1402 343 1401 343 1400 343 1399 343 1398 343 1397 343 1396 343 1395 343 1394 343 1395 343 1396 343 1397 343 1398 343 1399 343 1400 343 1401 343 1402 343 1403 343 1403 342 1403 341 1404 340 1405 340 1406 340 1407 340 1408 340 1409 340 1410 340 1411 339 1412 339 1413 339 1414 339 1415 339 1416 339 1417 339 1418 339 1419 339 1420 339 1421 339 1422 339 1423 339 1424 339 1425 339 1426 339 1427 339 1428 339 1429 338 1430 338 1431 338 1432 338 1433 338 1434 338 1435 338 1436 339 1437 340 1437 341 1437 342 1436 343 1435 343 1434 343 1433 343 1432 343 1431 343 1430 343 1429 343 1428 343 1427 343 1426 343 1425 343 1424 343 1423 343 1422 343 1421 343 1420 344 1419 344 1418 344 1417 344 1416 344 1415 344 1414 344 1413 344 1412 344 1411 344 1410 344 1409 344 1408 344 1407 344 1406 344 1405 344 1404 345 1403 345 1402 345 1401 345 1400 345 1399 345 1398 345 1397 345 1396 345 1395 345 1394 345 1393 345 1392 344 1391 344 1390 344 1389 344 1388 344 1387 344 1386 344 1385 344 1384 344 1383 344 1382 344 1381 344 1380 344 1379 344 1378 344 1379 344 1380 344 1381 344 1382 344 1383 344 1384 344 1385 344 1386 344 1387 344 1388 344 1389 344 1390 344 1391 344 1392 344 1393 345 1392 346 1391 346 1390 346 1389 346 1388 346 1387 346 1386 346 1385 346 1384 346 1383 346 1382 346 1381 346 1380 346 1379 346 1378 346 1377 346 1376 345 1375 345 1374 345 1373 345 1372 345 1371 345 1370 345 1369 345 1368 345 1367 345 1366 345 1365 345 1364 345 1363 345 1362 345 1361 345 1360 345 1359 345 1358 344 1357 344 1356 344 1355 344 1354 344 1353 343 1352 343 1351 343 1350 343 1349 343 1348 344 1347 344 1346 344 1345 344 1344 344 1343 344 1342 344 1341 343 1340 343 1339 343 1338 343 1337 343 1336 343 1335 343 1334 343 1333 342 1334 343 1335 343 1336 343 1337 343 1338 343 1339 343 1340 343 1341 343 1342 344 1343 344 1344 344 1345 344 1346 344 1347 344 1348 344 1349 345 1350 345 1351 345 1352 345 1353 345 1354 344 1355 344 1356 344 1357 344 1358 344 1359 345 1358 346 1357 346 1356 346 1355 346 1356 346 1357 346 1358 346 1359 345 1360 345 1361 345 1362 345 1363 345 1364 345 1365 345 1366 345 1367 345 1368 345 1369 345 1370 345 1371 345 1372 345 1373 345 1374 345 1375 345 1376 345 1377 346 1378 346 1379 346 1380 346 1381 346 1382 346 1383 346 1384 346 1385 346 1386 346 1387 346 1388 346 1389 346 1390 346 1391 346 1392 346 1393 345 1394 345 1395 345 1396 345 1397 345 1398 345 1399 345 1400 345 1401 345 1402 345 1403 346 1403 347 1403 346 1404 345 1405 344 1406 344 1407 344 1408 344 1409 344 1410 344 1411 344 1412 344 1413 344 1414 344 1415 344 1416 344 1417 344 1418 344 1419 344 1420 344 1421 343 1422 343 1423 343 1424 343 1425 343 1426 343 1427 343 1428 343 1429 343 1430 343 1431 343 1432 343 1433 343 1434 343 1435 343 1436 343 1437 342 1437 341 1437 340 1438 339 1439 338 1440 338 1441 338 1442 338 1443 338 1444 339 1444 340 1443 341 1442 340 1442 341 1443 341 1444 341 1444 340 1444 339 1445 338 1446 339 1446 340 1446 341 1446 342 1446 343 1446 344 1446 345 1446 346 1446 347 1446 348 1446 349 1446 350 1446 351 1446 352 1445 353 1444 353 1443 353 1442 353 1441 353 1440 353 1439 353 1438 353 1437 354 1437 355 1437 356 1436 357 1435 358 1434 358 1433 358 1432 358 1431 358 1430 358 1429 358 1428 359 1427 359 1426 359 1425 359 1424 359 1423 359 1422 359 1421 359 1420 359 1419 359 1418 359 1417 359 1416 359 1415 359 1414 359 1413 359 1412 359 1411 360 1410 360 1409 360 1408 360 1407 360 1406 360 1405 360 1404 360 1403 360 1402 360 1401 360 1400 360 1399 360 1398 360 1397 360 1396 360 1395 360 1394 360 1393 360 1392 360 1391 360 1390 360 1389 360 1388 361 1387 361 1386 361 1385 361 1384 361 1383 361 1382 361 1381 361 1380 361 1379 361 1378 361 1377 361 1376 361 1375 361 1374 362 1373 362 1372 362 1371 362 1370 362 1369 362 1368 362 1367 362 1366 362 1365 362 1364 362 1363 361 1363 360 1363 359 1363 358 1363 357 1363 356 1363 355 1363 354 1363 353 1363 352 1364 351 1365 351 1366 350 1367 351 1368 351 1369 351 1370 351 1371 351 1372 350 1373 351 1373 352 1373 353 1373 354 1374 354 1375 354 1374 354 1373 353 1373 352 1374 351 1375 350 1376 350 1377 350 1377 349 1376 350 1375 350 1374 350 1373 349 1372 350 1371 350 1370 351 1369 351 1368 351 1367 350 1366 350 1365 351 1364 351 1363 351 1363 352 1363 353 1363 354 1363 355 1363 356 1363 357 1363 358 1362 359 1361 359 1360 358 1359 358 1358 358 1357 358 1356 357 1355 356 1355 355 1355 354 1355 353 1355 352 1355 351 1355 350 1355 349 1355 348 1355 349 1355 350 1355 351 1355 352 1355 353 1355 354 1355 355 1355 356 1355 357 1356 358 1357 358 1358 358 1359 358 1360 358 1361 359 1362 359 1363 360 1363 361 1362 362 1361 362 1360 361 1359 361 1358 361 1357 361 1356 361 1355 360 1354 360 1353 360 1352 360 1351 360 1350 359 1349 359 1348 359 1347 359 1346 359 1345 359 1344 359 1343 359 1342 359 1341 359 1340 359 1339 359 1338 359 1339 359 1340 359 1341 359 1342 359 1343 359 1344 359 1345 359 1346 359 1347 359 1348 359 1349 359 1350 359 1351 360 1350 361 1349 361 1348 361 1347 361 1346 361 1345 361 1344 361 1343 361 1342 361 1341 361 1340 361 1339 361 1338 361 1337 361 1336 361 1335 361 1336 361 1337 361 1338 361 1339 361 1340 361 1341 361 1342 361 1343 361 1344 361 1345 361 1346 361 1347 361 1348 361 1349 361 1350 361 1351 362 1352 362 1353 362 1354 362 1355 362 1356 361 1357 361 1358 361 1359 361 1360 361 1361 362 1360 363 1359 363 1358 363 1357 363 1358 363 1359 363 1360 363 1361 364 1362 364 1363 364 1364 365 1364 366 1364 367 1364 368 1364 369 1364 370 1364 371 1364 372 1363 373 1362 373 1361 373 1360 374 1359 374 1358 374 1357 374 1356 374 1355 373 1356 372 1357 372 1358 372 1359 372 1358 372 1357 372 1356 372 1355 373 1354 373 1353 373 1352 373 1351 372 1352 371 1353 371 1354 371 1353 371 1352 371 1351 372 1350 372 1349 372 1348 372 1347 372 1346 372 1345 372 1344 372 1343 372 1342 372 1341 372 1340 372 1339 372 1338 372 1337 372 1336 372 1335 372 1334 373 1334 374 1334 375 1335 375 1334 374 1335 373 1336 372 1337 372 1338 372 1339 372 1340 372 1341 372 1342 372 1343 372 1344 372 1345 372 1346 372 1347 372 1348 372 1349 372 1350 372 1351 372 1352 373 1353 373 1354 373 1355 373 1356 374 1357 374 1358 374 1359 374 1360 374 1361 375 1362 375 1363 375 1364 375 1365 375 1366 375 1367 375 1368 375 1369 375 1370 375 1371 375 1372 375 1371 375 1370 375 1369 375 1368 375 1367 375 1366 375 1365 375 1364 375 1363 375 1362 375 1361 375 1360 374 1361 373 1362 373 1363 373 1364 373 1365 373 1366 373 1367 373 1368 373 1369 373 1370 373 1371 373 1372 373 1373 373 1374 374 1375 374 1376 374 1377 374 1378 374 1379 374 1380 374 1381 374 1382 374 1383 374 1384 374 1385 374 1386 374 1387 374 1386 374 1385 374 1384 374 1383 374 1382 374 1381 374 1380 374 1379 374 1378 374 1377 374 1376 374 1375 374 1374 374 1373 373 1372 373 1371 373 1370 373 1369 373 1368 373 1367 373 1366 373 1365 373 1364 372 1364 371 1364 370 1364 369 1364 368 1364 367 1364 366 1364 365 1365 364 1366 364 1367 364 1368 364 1369 364 1370 364 1371 364 1372 364 1373 364 1372 364 1371 364 1370 364 1369 364 1368 364 1367 364 1366 364 1365 364 1364 364 1363 364 1362 364 1361 364 1360 363 1361 362 1362 362 1363 362 1364 362 1365 362 1366 362 1367 362 1368 362 1369 362 1370 362 1371 362 1372 362 1373 362 1374 362 1375 361 1376 361 1377 361 1378 361 1379 361 1380 361 1381 361 1382 361 1383 361 1384 361 1385 361 1386 361 1387 361 1388 361 1389 362 1390 362 1391 362 1392 362 1393 362 1394 362 1395 362 1396 362 1397 362 1398 362 1399 362 1400 362 1401 362 1400 362 1399 362 1398 362 1397 362 1396 362 1395 362 1394 362 1393 362 1392 362 1391 362 1390 362 1389 362 1388 361 1389 360 1390 360 1391 360 1392 360 1393 360 1394 360 1395 360 1396 360 1397 360 1398 360 1399 360 1400 360 1401 360 1402 360 1403 360 1404 360 1405 360 1406 360 1407 360 1408 360 1409 360 1410 360 1411 361 1411 360 1412 359 1413 359 1414 359 1415 359 1416 359 1417 359 1418 359 1419 359 1420 359 1421 359 1422 359 1423 359 1424 359 1425 359 1426 359 1427 359 1428 359 1429 358 1430 358 1431 358 1432 358 1433 358 1434 358 1435 358 1436 359 1437 359 1438 360 1439 360 1440 360 1441 360 1442 360 1443 360 1444 360 1445 360 1446 361 1446 362 1446 363 1445 364 1444 364 1443 365 1442 365 1441 365 1440 365 1439 365 1438 365 1437 364 1436 363 1435 362 1434 363 1433 363 1432 363 1431 363 1430 363 1429 363 1428 363 1427 363 1426 363 1425 363 1424 363 1423 363 1422 363 1421 363 1420 364 1419 364 1418 364 1417 364 1416 364 1415 364 1414 364 1413 364 1412 364 1411 364 1410 364 1409 364 1408 364 1407 364 1406 365 1405 365 1404 365 1403 364 1403 363 1403 362 1403 363 1403 364 1403 365 1403 366 1404 367 1403 368 1403 369 1403 370 1402 371 1401 371 1400 371 1399 371 1398 371 1397 371 1396 371 1395 371 1394 371 1393 371 1392 371 1391 371 1390 371 1389 372 1388 372 1387 372 1386 372 1385 372 1384 372 1383 372 1382 372 1381 372 1380 372 1379 372 1378 372 1377 372 1376 372 1375 372 1376 372 1377 372 1378 372 1379 372 1380 372 1381 372 1382 372 1383 372 1384 372 1385 372 1386 372 1387 372 1388 372 1389 372 1390 373 1391 373 1392 373 1393 373 1394 373 1395 373 1396 373 1397 373 1398 373 1399 373 1400 373 1401 373 1402 373 1403 372 1404 372 1405 372 1406 372 1407 372 1408 372 1409 372 1410 372 1411 372 1412 371 1413 371 1414 371 1415 371 1416 371 1417 371 1418 371 1419 371 1420 371 1421 371 1422 371 1423 371 1424 371 1425 371 1426 371 1427 370 1428 370 1429 370 1430 370 1431 370 1432 370 1433 370 1434 370 1435 370 1436 370 1437 371 1437 372 1437 373 1437 374 1437 375 1437 376 1437 377 1437 378 1437 377 1437 376 1437 375 1437 374 1437 373 1437 372 1437 371 1437 370 1437 369 1437 368 1437 367 1437 366 1438 365 1439 365 1440 365 1441 365 1442 365 1443 366 1443 367 1443 368 1443 367 1443 366 1443 365 1444 364 1445 364 1446 365 1446 366 1446 367 1446 368 1446 369 1446 370 1446 371 1446 372 1446 373 1446 374 1446 375 1446 376 1446 377 1446 378 1445 379 1444 379 1443 379 1442 379 1441 379 1440 379 1439 379 1438 380 1437 380 1437 381 1437 382 1437 383 1437 384 1436 385 1435 385 1434 385 1433 385 1432 385 1431 385 1430 385 1429 385 1428 386 1427 386 1426 386 1425 386 1424 386 1423 386 1422 386 1421 386 1420 386 1419 386 1418 387 1417 387 1416 387 1415 387 1414 387 1413 387 1412 387 1413 387 1414 387 1415 387 1416 387 1417 387 1418 387 1419 386 1420 386 1421 386 1422 386 1423 386 1424 386 1425 386 1426 386 1427 386 1428 386 1429 385 1430 385 1431 385 1432 385 1433 385 1434 385 1435 385 1436 385 1437 384 1438 384 1439 384 1440 384 1441 384 1442 384 1443 384 1444 383 1445 383 1446 382 1447 382 1448 383 1447 384 1446 385 1445 386 1444 386 1443 386 1442 386 1441 386 1440 386 1439 387 1438 387 1437 387 1437 388 1437 389 1437 390 1437 391 1437 392 1438 393 1437 394 1437 395 1437 396 1437 397 1437 396 1437 395 1437 394 1438 393 1439 393 1440 393 1441 393 1442 393 1443 393 1444 393 1445 393 1446 394 1446 395 1446 396 1446 397 1446 398 1446 399 1446 400 1446 401 1446 402 1446 403 1446 404 1446 405 1446 406 1445 407 1444 408 1443 408 1442 408 1441 408 1440 408 1439 408 1438 408 1437 407 1437 406 1437 405 1437 404 1437 403 1437 402 1437 401 1437 400 1437 399 1436 399 1435 399 1434 399 1433 399 1432 399 1431 399 1430 399 1429 399 1428 400 1427 400 1426 400 1425 400 1424 400 1423 400 1422 400 1421 400 1420 400 1419 401 1418 401 1417 401 1416 401 1415 401 1414 401 1413 401 1412 401 1411 401 1410 401 1409 401 1408 401 1407 401 1406 401 1405 402 1406 401 1407 401 1408 401 1409 401 1410 401 1411 401 1412 401 1413 401 1414 401 1415 401 1416 401 1417 401 1418 401 1419 401 1420 400 1421 400 1422 400 1423 400 1424 400 1425 400 1426 400 1427 400 1428 400 1429 399 1430 399 1431 399 1432 399 1433 399 1434 399 1435 399 1436 399 1437 400 1437 401 1437 402 1437 403 1437 404 1437 405 1437 406 1437 407 1438 408 1439 408 1440 408 1441 408 1442 408 1443 408 1444 408 1445 407 1446 408 1446 409 1446 410 1446 411 1445 412 1444 412 1443 412 1442 412 1441 412 1440 413 1439 413 1438 413 1437 413 1436 414 1435 415 1434 415 1433 415 1432 415 1431 415 1430 415 1429 415 1428 415 1427 415 1426 415 1425 415 1424 416 1423 416 1422 416 1421 416 1420 416 1419 416 1418 416 1417 416 1416 416 1415 416 1414 416 1413 417 1412 417 1411 417 1410 417 1409 417 1408 417 1407 417 1406 417 1405 417 1404 417 1403 416 1403 415 1403 414 1403 413 1403 412 1403 411 1403 410 1403 409 1403 408 1403 407 1403 406 1403 405 1403 404 1403 403 1403 402 1402 401 1401 402 1400 402 1399 402 1398 402 1397 402 1396 402 1395 402 1394 402 1393 402 1392 402 1391 402 1390 403 1389 403 1388 403 1387 403 1386 403 1385 403 1384 403 1383 403 1382 403 1381 403 1380 403 1379 403 1378 403 1377 403 1376 404 1375 404 1374 404 1373 404 1372 404 1372 405 1372 406 1372 407 1372 408 1372 409 1372 410 1372 411 1372 412 1373 412 1374 412 1374 411 1374 410 1374 409 1374 408 1374 409 1374 410 1374 411 1373 412 1372 411 1372 410 1372 409 1372 408 1372 407 1372 406 1372 405 1373 404 1374 404 1375 404 1376 404 1377 403 1378 403 1379 403 1380 403 1381 403 1382 403 1383 403 1384 403 1385 403 1386 403 1387 403 1388 403 1389 403 1390 403 1391 402 1392 402 1393 402 1394 402 1395 402 1396 402 1397 402 1398 402 1399 402 1400 402 1401 402 1402 401 1403 402 1403 403 1403 404 1403 405 1403 406 1403 407 1403 408 1403 409 1403 410 1403 411 1403 412 1403 413 1403 414 1403 415 1403 416 1404 417 1405 417 1406 417 1407 417 1408 417 1409 417 1410 417 1411 417 1412 417 1413 417 1414 416 1415 416 1416 416 1417 416 1418 416 1419 416 1420 416 1421 416 1422 416 1423 416 1424 416 1425 415 1426 415 1427 415 1428 415 1429 415 1430 415 1431 415 1432 415 1433 415 1434 415 1435 415 1436 414 1437 413 1438 413 1439 413 1440 413 1441 412 1442 412 1443 412 1444 412 1445 412 1446 412 1446 411 1447 410 1448 410 1449 411 1450 411 1451 411 1452 411 1453 411 1454 412 1455 412 1456 412 1457 412 1458 412 1459 413 1460 413 1461 413 1462 414 1463 414 1464 414 1465 415 1464 416 1464 417 1464 418 1464 419 1464 420 1464 421 1464 422 1464 423 1464 424 1465 424 1466 424 1466 423 1466 422 1466 421 1466 420 1466 419 1466 418 1466 417 1466 416 1466 415 1465 415 1464 414 1463 414 1462 414 1461 413 1460 413 1459 413 1458 412 1457 412 1456 412 1455 412 1454 412 1453 411 1452 411 1451 411 1450 411 1449 410 1448 410 1447 410 1446 409 1446 408 1446 407 1446 406 1446 405 1446 404 1446 403 1447 402 1448 402 1449 401 1450 401 1451 401 1452 401 1453 401 1454 402 1453 403 1452 403 1451 403 1450 403 1451 403 1452 403 1453 403 1454 404 1455 404 1456 404 1457 404 1456 404 1455 404 1454 404 1453 403 1454 402 1455 402 1456 402 1457 402 1458 402 1459 402 1460 403 1461 403 1462 403 1463 403 1464 404 1465 404 1466 404 1467 405 1466 406 1465 406 1464 406 1463 406 1464 406 1465 406 1466 406 1467 405 1468 405 1469 405 1470 405 1471 405 1472 406 1471 407 1470 407 1469 407 1468 407 1469 407 1470 407 1471 407 1472 408 1473 408 1474 408 1475 408 1476 409 1475 410 1476 409 1477 409 1478 409 1479 409 1478 409 1477 409 1476 409 1475 408 1476 407 1477 407 1478 407 1479 407 1480 407 1481 407 1482 408 1483 408 1484 408 1485 408 1486 409 1487 409 1488 409 1489 409 1490 410 1491 410 1492 410 1493 410 1494 410 1495 411 1496 411 1497 411 1498 412 1497 413 1496 413 1495 413 1494 413 1493 412 1492 412 1491 412 1490 412 1489 412 1488 411 1487 411 1486 411 1487 411 1488 411 1489 412 1490 412 1491 412 1492 412 1493 412 1494 413 1495 413 1496 413 1497 413 1498 412 1499 412 1500 412 1501 412 1502 412 1503 412 1504 413 1505 413 1506 413 1507 413 1508 414 1509 414 1510 414 1511 415 1510 416 1509 416 1508 416 1509 416 1510 416 1511 415 1512 415 1513 415 1514 415 1515 415 1516 415 1517 416 1518 416 1519 416 1520 416 1521 417 1522 417 1523 417 1524 417 1525 417 1526 416 1526 415 1526 414 1526 413 1526 412 1526 411 1526 410 1527 409 1527 408 1527 407 1527 406 1527 405 1527 404 1527 403 1527 402 1527 401 1527 400 1526 399 1526 398 1526 397 1526 396 1526 395 1526 394 1526 393 1526 392 1526 391 1526 390 1526 389 1526 388 1526 387 1526 386 1526 385 1526 384 1526 383 1527 382 1527 381 1527 380 1527 379 1527 378 1527 377 1527 376 1527 375 1527 374 1527 373 1527 372 1527 371 1527 370 1527 369 1526 368 1526 367 1526 366 1526 365 1526 364 1526 363 1526 362 1526 361 1526 360 1526 359 1526 358 1526 357 1526 356 1526 355 1526 354 1527 353 1527 352 1527 351 1527 350 1527 349 1527 348 1527 347 1527 346 1527 345 1527 344 1527 343 1527 342 1527 341 1527 340 1526 339 1526 338 1526 337 1525 336 1526 335 1525 335 1524 336 1523 336 1522 336 1521 336 1520 336 1519 335 1518 335 1517 335 1516 335 1515 335 1514 335 1513 335 1512 334 1511 334 1510 334 1509 334 1508 334 1507 334 1506 334 1505 333 1504 333 1503 333 1502 333 1501 333 1500 333 1499 332 1498 332 1497 332 1496 332 1495 332 1494 332 1493 332 1492 332 1491 331 1490 331 1489 331 1488 331 1487 331 1486 331 1485 330 1484 330 1483 330 1482 330 1481 330 1480 330 1479 330 1478 329 1477 329 1476 329 1475 329 1474 329 1473 329 1472 329 1471 328 1470 328 1469 328 1468 328 1467 328 1466 328 1465 327 1466 326 1467 326 1468 325 1469 325 1470 324 1471 324 1472 325 1473 325 1474 325 1475 325 1476 326 1477 326 1478 326 1479 326 1480 326 1481 327 1482 327 1483 327 1484 327 1485 327 1486 327 1487 327 1488 328 1489 328 1490 328 1491 328 1492 328 1493 328 1492 328 1491 328 1490 328 1489 328 1488 328 1487 327 1486 327 1485 327 1484 327 1483 327 1482 327 1481 327 1480 326 1479 326 1478 326 1477 326 1476 325 1475 325 1474 325 1473 325 1472 325 1471 324 1470 324 1469 325 1468 325 1467 325 1466 326 1465 327 1464 326 1463 326 1462 326 1461 326 1460 326 1459 326 1458 326 1457 326 1456 326 1455 326 1454 326 1453 326 1452 326 1451 326 1450 326 1449 327 1448 327 1449 327 1450 326 1451 326 1452 326 1453 326 1454 326 1455 326 1456 326 1457 326 1458 326 1459 326 1460 326 1461 326 1462 326 1463 326 1464 326 1465 327 1464 328 1463 328 1462 328 1461 328 1460 328 1459 328 1458 328 1457 328 1456 328 1455 328 1454 329 1453 329 1452 329 1451 329 1450 329 1449 329 1448 329 1447 329 1446 328 1446 327 1445 326 1446 325 1446 324 1446 323 1446 322 1446 321 1447 320 1448 319 1449 320 1450 320 1451 320 1452 321 1453 321 1454 321 1455 321 1456 322 1457 322 1458 322 1459 322 1460 322 1461 322 1462 322 1463 322 1464 322 1465 323 1466 323 1467 323 1466 323 1465 323 1464 322 1463 322 1462 322 1461 322 1460 322 1459 322 1458 322 1457 322 1456 322 1455 321 1454 321 1453 320 1453 319 1453 318 1453 317 1453 316 1453 315 1453 314 1453 313 1453 312 1453 311 1453 310 1453 309 1453 308 1453 307 1453 306 1453 305 1453 304 1453 303 1453 302 1453 301 1453 300 1453 299 1453 298 1453 297 1453 296 1453 295 1453 294 1453 293 1453 292 1454 291 1455 291 1456 291 1457 292 1457 293 1457 294 1458 294 1459 294 1460 294 1461 294 1462 294 1463 294 1464 295 1465 295 1466 295 1467 295 1468 295 1468 294 1468 293 1468 292 1467 291 1466 292 1465 292 1464 292 1465 292 1466 292 1467 292 1468 293 1468 294 1467 295 1466 295 1465 295 1464 295 1463 294 1462 294 1461 294 1460 294 1459 294 1458 294 1457 293 1457 292 1457 291 1458 290 1459 290 1460 290 1459 290 1458 290 1457 291 1456 291 1455 291 1454 291 1453 291 1452 290 1451 291 1450 291 1449 291 1448 290 1447 290 "/></svg>